# xmcd
#
# Track frame offsets: 
#        150
#        12237
#        23262
#        35860
#        44020
#        55240
#        66415
#        74682
#        83170
#        93910
#        111780
#        119375
#        126580
#        133992
#        140237
#        158277
#
# Disc length: 2209 seconds
#
# Revision: 4
# Processed by: cddbd v1.5.2PL0 Copyright (c) Steve Scherf et al.
# Submitted via: ExactAudioCopy v0.95b4
#
DISCID=ec089f10
DTITLE=Various Artist - Country Guitar Thunder (Joe Maphis and Merle Travis 197
DTITLE=7-1981)
DYEAR=1995
DGENRE=Country
TTITLE0=Joe Maphis - Ballad of Thunder Road, Theme from Bonanza
TTITLE1=Joe Maphis - Nashville Jubilee
TTITLE2=Joe Maphis and Merle Travis - Lonesome Road Blues
TTITLE3=Joe Maphis and Merle Travis - Black Mountain Rag
TTITLE4=Joe Maphis and Merle Travis - Freight Train
TTITLE5=Joe Maphis and Merle Travis - Free Little Bird
TTITLE6=Joe Maphis - Liberty
TTITLE7=Joe Maphis - Little Rock Getaway
TTITLE8=Joe Maphis - Flying Fingers
TTITLE9=Joe Maphis and Merle Travis - Mose Rager Blues
TTITLE10=Joe Maphis and Merle Travis - Wildwood Flower
TTITLE11=Joe Maphis and Merle Travis - Alabama Jubilee
TTITLE12=Joe Maphis and Merle Travis - John Henry
TTITLE13=Joe Maphis and Merle Travis - Li'l Liza Jane
TTITLE14=Joe Maphis - Irish Washerwoman
TTITLE15=Joe Maphis and Merle Travis - Eight More Miles to Louisville
EXTD=
EXTT0=
EXTT1=
EXTT2=
EXTT3=
EXTT4=
EXTT5=
EXTT6=
EXTT7=
EXTT8=
EXTT9=
EXTT10=
EXTT11=
EXTT12=
EXTT13=
EXTT14=
EXTT15=
PLAYORDER=
